HIERARCHY
ROOT Hips
{
	OFFSET 0.000000 103.266502 0.000000
	CHANNELS 6 Xposition Yposition Zposition Xrotation Yrotation Zrotation 
	JOINT Spine
	{
		OFFSET -0.002400 12.777504 0.315300
		CHANNELS 3 Xrotation Yrotation Zrotation
		JOINT Spine1
		{
			OFFSET -0.002067 5.816869 0.032633
			CHANNELS 3 Xrotation Yrotation Zrotation
			JOINT Spine1_split
			{
				OFFSET -0.002067 5.816869 0.032633
				CHANNELS 3 Xrotation Yrotation Zrotation
				JOINT Spine2
				{
					OFFSET -0.002067 5.816869 0.032633
					CHANNELS 3 Xrotation Yrotation Zrotation
					JOINT Neck
					{
						OFFSET -0.003700 21.199493 -0.826900
						CHANNELS 3 Xrotation Yrotation Zrotation
						JOINT Head
						{
							OFFSET 0.000000 20.442200 4.834800
							CHANNELS 3 Xrotation Yrotation Zrotation
							JOINT HeadTop_End
							{
								OFFSET 0.000000 34.668396 4.968400
								CHANNELS 3 Xrotation Yrotation Zrotation
								End Site
								{
									OFFSET 0.000000 0.000000 0.000000
								}
							}
						}
					}
					JOINT LeftShoulder
					{
						OFFSET 3.288150 8.794197 -1.372250
						CHANNELS 3 Xrotation Yrotation Zrotation
						JOINT LeftShoulder_split
						{
							OFFSET 3.288150 8.794197 -1.372250
							CHANNELS 3 Xrotation Yrotation Zrotation
							JOINT LeftArm
							{
								OFFSET 11.953299 -2.279007 -0.146200
								CHANNELS 3 Xrotation Yrotation Zrotation
								JOINT LeftForeArm
								{
									OFFSET 18.448900 0.000000 0.000000
									CHANNELS 3 Xrotation Yrotation Zrotation
									JOINT LeftHand
									{
										OFFSET 29.527798 0.000000 0.000000
										CHANNELS 3 Xrotation Yrotation Zrotation
										JOINT LeftHandThumb1
										{
											OFFSET 10.739754 -2.369614 9.225399
											CHANNELS 3 Xrotation Yrotation Zrotation
											JOINT LeftHandThumb2
											{
												OFFSET 4.926170 -2.844131 2.844125
												CHANNELS 3 Xrotation Yrotation Zrotation
												JOINT LeftHandThumb3
												{
													OFFSET 4.614891 -2.664413 2.664409
													CHANNELS 3 Xrotation Yrotation Zrotation
													JOINT LeftHandThumb4
													{
														OFFSET 4.432465 -2.559082 2.559083
														CHANNELS 3 Xrotation Yrotation Zrotation
														End Site
														{
															OFFSET 0.000000 0.000000 0.000000
														}
													}
												}
											}
										}
										JOINT LeftHandIndex1
										{
											OFFSET 26.467674 0.187653 6.405298
											CHANNELS 3 Xrotation Yrotation Zrotation
											JOINT LeftHandIndex2
											{
												OFFSET 8.792900 0.000000 0.000000
												CHANNELS 3 Xrotation Yrotation Zrotation
												JOINT LeftHandIndex3
												{
													OFFSET 10.075203 0.000000 0.000000
													CHANNELS 3 Xrotation Yrotation Zrotation
													End Site
													{
														OFFSET 0.000000 0.000000 0.000000
													}
												}
											}
										}
										JOINT LeftHandMiddle1
										{
											OFFSET 25.764404 0.000000 0.000000
											CHANNELS 3 Xrotation Yrotation Zrotation
											JOINT LeftHandMiddle2
											{
												OFFSET 9.393974 0.000000 0.000000
												CHANNELS 3 Xrotation Yrotation Zrotation
												JOINT LeftHandMiddle3
												{
													OFFSET 10.771950 0.000000 0.000000
													CHANNELS 3 Xrotation Yrotation Zrotation
													End Site
													{
														OFFSET 0.000000 0.000000 0.000000
													}
												}
											}
										}
										JOINT LeftHandRing1
										{
											OFFSET 24.660927 0.144547 -6.225808
											CHANNELS 3 Xrotation Yrotation Zrotation
											JOINT LeftHandRing2
											{
												OFFSET 9.393799 0.000000 0.000000
												CHANNELS 3 Xrotation Yrotation Zrotation
												JOINT LeftHandRing3
												{
													OFFSET 9.928497 0.000000 0.000000
													CHANNELS 3 Xrotation Yrotation Zrotation
													End Site
													{
														OFFSET 0.000000 0.000000 0.000000
													}
												}
											}
										}
										JOINT LeftHandPinky1
										{
											OFFSET 23.655350 0.125290 -12.815412
											CHANNELS 3 Xrotation Yrotation Zrotation
											JOINT LeftHandPinky2
											{
												OFFSET 8.425102 0.000000 0.000000
												CHANNELS 3 Xrotation Yrotation Zrotation
												JOINT LeftHandPinky3
												{
													OFFSET 8.147003 0.000000 0.000000
													CHANNELS 3 Xrotation Yrotation Zrotation
													End Site
													{
														OFFSET 0.000000 0.000000 0.000000
													}
												}
											}
										}
									}
								}
							}
						}
					}
					JOINT RightShoulder
					{
						OFFSET -3.249400 8.794197 -1.372250
						CHANNELS 3 Xrotation Yrotation Zrotation
						JOINT RightShoulder_split
						{
							OFFSET -3.249400 8.794197 -1.372250
							CHANNELS 3 Xrotation Yrotation Zrotation
							JOINT RightArm
							{
								OFFSET -11.953299 -2.279007 -0.146200
								CHANNELS 3 Xrotation Yrotation Zrotation
								JOINT RightForeArm
								{
									OFFSET -18.448900 0.000000 0.000000
									CHANNELS 3 Xrotation Yrotation Zrotation
									JOINT RightHand
									{
										OFFSET -29.527802 0.000000 0.000000
										CHANNELS 3 Xrotation Yrotation Zrotation
										JOINT RightHandThumb1
										{
											OFFSET -10.739754 -2.369614 9.225399
											CHANNELS 3 Xrotation Yrotation Zrotation
											JOINT RightHandThumb2
											{
												OFFSET -4.926170 -2.844131 2.844125
												CHANNELS 3 Xrotation Yrotation Zrotation
												JOINT RightHandThumb3
												{
													OFFSET -4.614891 -2.664413 2.664409
													CHANNELS 3 Xrotation Yrotation Zrotation
													JOINT RightHandThumb4
													{
														OFFSET -4.432465 -2.559082 2.559083
														CHANNELS 3 Xrotation Yrotation Zrotation
														End Site
														{
															OFFSET 0.000000 0.000000 0.000000
														}
													}
												}
											}
										}
										JOINT RightHandIndex1
										{
											OFFSET -26.467674 0.187653 6.405298
											CHANNELS 3 Xrotation Yrotation Zrotation
											JOINT RightHandIndex2
											{
												OFFSET -8.792900 0.000000 0.000000
												CHANNELS 3 Xrotation Yrotation Zrotation
												JOINT RightHandIndex3
												{
													OFFSET -10.075203 0.000000 0.000000
													CHANNELS 3 Xrotation Yrotation Zrotation
													End Site
													{
														OFFSET 0.000000 0.000000 0.000000
													}
												}
											}
										}
										JOINT RightHandMiddle1
										{
											OFFSET -25.764404 0.000000 0.000000
											CHANNELS 3 Xrotation Yrotation Zrotation
											JOINT RightHandMiddle2
											{
												OFFSET -9.393974 0.000000 0.000000
												CHANNELS 3 Xrotation Yrotation Zrotation
												JOINT RightHandMiddle3
												{
													OFFSET -10.771950 0.000000 0.000000
													CHANNELS 3 Xrotation Yrotation Zrotation
													End Site
													{
														OFFSET 0.000000 0.000000 0.000000
													}
												}
											}
										}
										JOINT RightHandRing1
										{
											OFFSET -24.660927 0.144547 -6.225808
											CHANNELS 3 Xrotation Yrotation Zrotation
											JOINT RightHandRing2
											{
												OFFSET -9.393799 0.000000 0.000000
												CHANNELS 3 Xrotation Yrotation Zrotation
												JOINT RightHandRing3
												{
													OFFSET -9.928497 0.000000 0.000000
													CHANNELS 3 Xrotation Yrotation Zrotation
													End Site
													{
														OFFSET 0.000000 0.000000 0.000000
													}
												}
											}
										}
										JOINT RightHandPinky1
										{
											OFFSET -23.655350 0.125290 -12.815412
											CHANNELS 3 Xrotation Yrotation Zrotation
											JOINT RightHandPinky2
											{
												OFFSET -8.425102 0.000000 0.000000
												CHANNELS 3 Xrotation Yrotation Zrotation
												JOINT RightHandPinky3
												{
													OFFSET -8.147003 0.000000 0.000000
													CHANNELS 3 Xrotation Yrotation Zrotation
													End Site
													{
														OFFSET 0.000000 0.000000 0.000000
													}
												}
											}
										}
									}
								}
							}
						}
					}
				}
			}
		}
	}
	JOINT LeftUpLeg
	{
		OFFSET 11.394100 -6.187798 -0.413800
		CHANNELS 3 Xrotation Yrotation Zrotation
		JOINT LeftLeg
		{
			OFFSET 0.430247 -32.302673 3.732800
			CHANNELS 3 Xrotation Yrotation Zrotation
			JOINT LeftFoot
			{
				OFFSET -0.430247 -48.264931 -6.423300
				CHANNELS 3 Xrotation Yrotation Zrotation
				JOINT LeftToeBase
				{
					OFFSET 4.230900 -16.068199 23.438400
					CHANNELS 3 Xrotation Yrotation Zrotation
					JOINT LeftToe_End
					{
						OFFSET 4.510700 0.695400 19.974600
						CHANNELS 3 Xrotation Yrotation Zrotation
						End Site
						{
							OFFSET 0.000000 0.000000 0.000000
						}
					}
				}
			}
		}
	}
	JOINT RightUpLeg
	{
		OFFSET -11.333700 -6.187798 -0.413800
		CHANNELS 3 Xrotation Yrotation Zrotation
		JOINT RightLeg
		{
			OFFSET -0.430392 -32.302628 3.733000
			CHANNELS 3 Xrotation Yrotation Zrotation
			JOINT RightFoot
			{
				OFFSET 0.430392 -48.264973 -6.423500
				CHANNELS 3 Xrotation Yrotation Zrotation
				JOINT RightToeBase
				{
					OFFSET -4.230900 -16.068199 23.438400
					CHANNELS 3 Xrotation Yrotation Zrotation
					JOINT RightToe_End
					{
						OFFSET -4.510700 0.695400 19.974600
						CHANNELS 3 Xrotation Yrotation Zrotation
						End Site
						{
							OFFSET 0.000000 0.000000 0.000000
						}
					}
				}
			}
		}
	}
}
MOTION
Frames: 4
Frame Time: 0.016667
-0.100752 101.624817 0.033349 2.828188 -5.508585 -1.330138 -0.411227 -1.029271 1.183744 -1.124193 -0.763623 0.960462 0.000000 0.000000 0.000000 -1.125714 -0.723789 0.985440 -4.895965 1.540608 -0.449521 -0.934612 6.880853 -0.774390 -0.000000 -0.000000 0.000000 -1.469254 10.517224 -4.984828 0.000000 0.000000 0.000000 43.879652 -68.213693 -24.791766 0.000001 -21.268106 0.000000 -25.251734 7.009047 0.097459 -3.405762 19.076285 14.453278 15.249468 14.620652 -5.800667 4.892164 5.223036 0.075633 0.000002 -0.000001 0.000001 0.380317 2.260836 -19.095160 0.158438 1.471495 -12.290090 0.000005 0.000000 0.000001 0.379674 2.258992 -19.079160 0.158859 1.473392 -12.306080 0.000001 -0.000001 -0.000000 0.380316 2.260834 -19.095160 0.158440 1.471494 -12.290090 -0.000000 0.000000 -0.000001 1.696005 6.096993 -18.680648 0.153597 -2.584209 -12.789183 0.000001 -0.000000 -0.000002 3.669363 5.665987 1.464134 0.000000 0.000000 0.000000 -1.701520 36.578665 65.584959 0.000002 22.959754 0.000008 -19.091383 -11.054781 9.870823 1.944064 -20.994847 -11.060292 4.637196 -8.634123 -0.225390 -1.273762 0.137307 -2.094881 -0.000000 -0.000002 -0.000001 0.194541 -1.636472 13.558138 0.162591 -1.497882 12.390187 0.000001 0.000001 -0.000001 0.194542 -1.636476 13.558136 0.162590 -1.497875 12.390184 -0.000001 -0.000000 -0.000002 0.194540 -1.636471 13.558138 0.162593 -1.497883 12.390186 -0.000000 -0.000001 -0.000003 0.194539 -1.636473 13.558139 0.162591 -1.497885 12.390184 -0.000002 0.000000 0.000002 -18.810286 16.531559 11.759056 17.540585 9.934806 4.666955 -1.149721 2.968695 -10.383970 -0.000001 -0.000007 0.000005 -0.000000 -0.000000 -0.000000 -16.428113 -21.132204 -5.289929 17.637579 9.759348 -2.979298 -4.694547 1.187293 3.985398 -0.000003 -0.000000 -0.000001 -0.000000 -0.000002 0.000000 
-0.078006 101.623695 0.024909 2.805675 -5.467854 -1.307274 -0.420829 -1.069353 1.179954 -1.133012 -0.794373 0.957289 0.000000 0.000000 0.000000 -1.134493 -0.754704 0.983291 -4.912533 1.560736 -0.428862 -0.893665 7.011523 -0.803163 -0.000000 0.000000 -0.000000 -1.470419 10.513382 -4.967266 0.000000 0.000000 0.000000 43.640203 -68.242831 -25.097581 -0.000017 -21.297095 -0.000005 -25.352242 7.076695 0.079881 -3.405756 19.076285 14.453275 15.249468 14.620653 -5.800665 4.892157 5.223035 0.075635 0.000003 -0.000002 -0.000001 0.380320 2.260837 -19.095162 0.158438 1.471495 -12.290090 -0.000002 -0.000000 0.000000 0.379677 2.258992 -19.079160 0.158862 1.473393 -12.306079 -0.000002 -0.000000 0.000001 0.380317 2.260836 -19.095160 0.158440 1.471494 -12.290090 0.000002 0.000000 0.000001 1.696004 6.096994 -18.680649 0.153590 -2.584210 -12.789181 -0.000000 -0.000000 -0.000001 3.665458 5.656878 1.475270 0.000000 0.000000 0.000000 -1.703468 36.697534 65.596713 0.000006 22.913193 -0.000006 -18.957492 -10.909261 10.116173 1.959306 -20.982032 -11.038611 4.637199 -8.634128 -0.225407 -1.273760 0.137308 -2.094868 0.000001 0.000001 0.000001 0.194544 -1.636466 13.558116 0.162599 -1.497882 12.390204 -0.000002 0.000000 0.000000 0.194545 -1.636466 13.558112 0.162585 -1.497878 12.390222 -0.000003 -0.000001 -0.000001 0.194544 -1.636465 13.558114 0.162597 -1.497883 12.390202 -0.000002 -0.000000 -0.000002 0.194546 -1.636465 13.558115 0.162599 -1.497883 12.390205 -0.000000 0.000000 0.000000 -18.788867 16.530060 11.736691 17.548224 9.928922 4.623268 -1.154609 2.942377 -10.344185 -0.000001 -0.000009 0.000005 -0.000000 0.000000 0.000000 -16.443942 -21.155748 -5.358855 17.664292 9.758899 -2.969289 -4.700017 1.191314 3.994895 -0.000002 -0.000002 0.000001 0.000000 0.000000 0.000000 
-0.053423 101.621117 0.016380 2.785877 -5.430131 -1.275990 -0.425844 -1.106988 1.172796 -1.138106 -0.823450 0.951492 0.000000 0.000000 0.000000 -1.139511 -0.784105 0.978433 -4.937642 1.583684 -0.410673 -0.868419 7.152526 -0.837618 -0.000000 0.000000 -0.000000 -1.471644 10.508769 -4.946811 0.000000 0.000000 0.000000 43.432097 -68.283095 -25.363706 -0.000003 -21.330131 0.000004 -25.465233 7.139511 0.050437 -3.405761 19.076286 14.453275 15.249468 14.620657 -5.800665 4.892162 5.223037 0.075635 0.000001 0.000000 -0.000001 0.380318 2.260837 -19.095158 0.158440 1.471494 -12.290090 -0.000000 0.000001 0.000001 0.379677 2.258991 -19.079160 0.158862 1.473393 -12.306079 0.000003 -0.000002 -0.000000 0.380316 2.260837 -19.095158 0.158438 1.471496 -12.290089 0.000001 0.000000 -0.000001 1.696005 6.096993 -18.680646 0.153591 -2.584209 -12.789181 -0.000001 0.000000 -0.000001 3.663051 5.650922 1.476512 0.000000 0.000000 0.000000 -1.717229 36.859580 65.610360 0.000005 22.842787 -0.000020 -18.751852 -10.780432 10.391274 2.004047 -20.944346 -10.974919 4.637196 -8.634139 -0.225443 -1.273756 0.137312 -2.094872 0.000002 0.000001 0.000001 0.194548 -1.636479 13.558124 0.162605 -1.497877 12.390206 -0.000002 -0.000000 0.000001 0.194546 -1.636475 13.558130 0.162602 -1.497881 12.390209 0.000001 -0.000000 0.000000 0.194548 -1.636478 13.558123 0.162604 -1.497879 12.390207 0.000000 -0.000001 -0.000002 0.194548 -1.636478 13.558123 0.162603 -1.497880 12.390206 -0.000002 0.000001 0.000001 -18.768381 16.532406 11.702453 17.556837 9.923071 4.583926 -1.159499 2.917556 -10.304206 -0.000001 -0.000007 0.000005 -0.000000 0.000000 -0.000000 -16.477189 -21.180183 -5.442634 17.705546 9.758448 -2.959350 -4.711228 1.201759 4.005356 -0.000002 0.000000 0.000001 -0.000000 0.000002 -0.000000 
-0.024363 101.616669 0.007966 2.774365 -5.402170 -1.230505 -0.424388 -1.140350 1.160891 -1.138049 -0.849449 0.942093 0.000000 0.000000 0.000000 -1.139338 -0.810643 0.969838 -4.977106 1.608949 -0.396729 -0.867554 7.298592 -0.878810 -0.000000 0.000000 -0.000000 -1.472791 10.501847 -4.921265 0.000000 0.000000 0.000000 43.262821 -68.342272 -25.576285 -0.000010 -21.363952 -0.000031 -25.588657 7.196886 -0.002519 -3.405758 19.076286 14.453276 15.249470 14.620655 -5.800669 4.892163 5.223033 0.075633 0.000002 -0.000001 -0.000001 0.380321 2.260836 -19.095160 0.158436 1.471495 -12.290090 0.000002 0.000000 0.000001 0.379678 2.258990 -19.079157 0.158859 1.473393 -12.306076 -0.000003 0.000000 0.000001 0.380319 2.260835 -19.095160 0.158440 1.471494 -12.290090 0.000000 -0.000000 0.000000 1.696008 6.096992 -18.680648 0.153595 -2.584209 -12.789178 0.000001 -0.000001 -0.000001 3.662695 5.649603 1.468054 0.000000 0.000000 0.000000 -1.746190 37.070678 65.621582 -0.000016 22.738554 0.000005 -18.460268 -10.670047 10.687681 2.076840 -20.882766 -10.871379 4.637198 -8.634122 -0.225398 -1.273763 0.137311 -2.094873 0.000000 -0.000002 -0.000000 0.194547 -1.636471 13.558116 0.162597 -1.497868 12.390199 -0.000002 0.000001 0.000002 0.194549 -1.636466 13.558111 0.162605 -1.497871 12.390200 -0.000002 -0.000000 -0.000000 0.194548 -1.636470 13.558114 0.162598 -1.497868 12.390196 -0.000000 -0.000000 0.000002 0.194549 -1.636472 13.558115 0.162601 -1.497869 12.390197 -0.000001 0.000001 0.000002 -18.751303 16.552972 11.647530 17.562016 9.917868 4.555980 -1.166975 2.890201 -10.265102 -0.000001 -0.000008 0.000005 -0.000000 0.000000 -0.000000 -16.542360 -21.194770 -5.549048 17.768927 9.757760 -2.948728 -4.726542 1.217131 4.017674 0.000002 -0.000003 -0.000002 -0.000000 -0.000001 -0.000000 
